<?xml version="1.0" standalone="no"?>
<!DOCTYPE svg PUBLIC "-//W3C//DTD SVG 20010904//EN"
 "http://www.w3.org/TR/2001/REC-SVG-20010904/DTD/svg10.dtd">
<svg version="1.0" xmlns="http://www.w3.org/2000/svg"
 width="184.000000pt" height="184.000000pt" viewBox="0 0 184.000000 184.000000"
 preserveAspectRatio="xMidYMid meet">

<g transform="translate(0.000000,184.000000) scale(0.100000,-0.100000)"
fill="#000000" stroke="none">
<path d="M0 920 l0 -920 920 0 920 0 0 920 0 920 -920 0 -920 0 0 -920z m1130
800 c0 -15 7 -20 25 -20 l25 0 0 -100 0 -100 -50 0 c-47 0 -50 2 -50 25 0 20
-5 25 -25 25 -20 0 -25 -5 -25 -25 0 -23 -3 -25 -50 -25 -47 0 -50 2 -50 25 0
20 -5 25 -25 25 -23 0 -25 3 -25 50 0 47 2 50 25 50 20 0 25 5 25 25 0 20 5
25 25 25 15 0 25 6 25 15 0 10 17 15 68 18 37 2 70 4 75 5 4 1 7 -7 7 -18z
m100 -345 c0 -20 5 -25 25 -25 20 0 25 -5 25 -25 0 -20 -5 -25 -25 -25 -20 0
-25 5 -25 25 l0 25 -100 0 -100 0 0 -25 c0 -23 3 -25 50 -25 l50 0 0 -50 c0
-47 2 -50 25 -50 23 0 25 -3 25 -50 0 -47 -2 -50 -25 -50 -20 0 -25 -5 -25
-25 0 -23 -3 -25 -50 -25 -47 0 -50 -2 -50 -25 0 -23 3 -25 50 -25 47 0 50 -2
50 -25 0 -23 -3 -25 -50 -25 -47 0 -50 2 -50 25 0 20 -5 25 -25 25 -20 0 -25
5 -25 25 0 23 -3 25 -50 25 -47 0 -50 -2 -50 -25 0 -20 5 -25 25 -25 20 0 25
-5 25 -25 0 -20 -5 -25 -25 -25 -20 0 -25 5 -25 25 0 20 -5 25 -25 25 -23 0
-25 3 -25 50 l0 50 -75 0 c-73 0 -75 -1 -75 -25 0 -24 -2 -25 -75 -25 -73 0
-75 1 -75 25 0 20 -5 25 -25 25 -24 0 -25 2 -25 75 0 73 1 75 25 75 20 0 25 5
25 25 0 23 3 25 50 25 47 0 50 -2 50 -25 0 -24 2 -25 75 -25 73 0 75 1 75 25
0 20 5 25 25 25 24 0 25 -2 25 -75 0 -73 1 -75 25 -75 23 0 25 3 25 50 l0 50
50 0 c47 0 50 -2 50 -25 0 -20 5 -25 25 -25 23 0 25 3 25 50 0 47 -2 50 -25
50 -20 0 -25 5 -25 25 0 20 5 25 25 25 20 0 25 5 25 25 l0 25 100 0 100 0 0
-25z m-50 -500 l0 -25 -150 0 -150 0 0 25 0 25 150 0 150 0 0 -25z m-250 -150
l0 -75 -50 0 -50 0 0 75 0 75 50 0 50 0 0 -75z m150 0 l0 -75 -50 0 -50 0 0
75 0 75 50 0 50 0 0 -75z m150 0 l0 -75 -50 0 -50 0 0 75 0 75 50 0 50 0 0
-75z"/>
<path d="M1030 1625 c0 -20 -5 -25 -25 -25 -20 0 -25 -5 -25 -25 0 -20 5 -25
25 -25 20 0 25 5 25 25 0 20 5 25 25 25 20 0 25 5 25 25 0 20 -5 25 -25 25
-20 0 -25 -5 -25 -25z"/>
</g>
</svg>
